# xmcd
#
# Track frame offsets:
#	150
#	14894
#	26757
#	43835
#	65880
#	89150
#	103071
#	118104
#	139142
#	160461
#	173250
#	188520
#
# Disc length: 2675 seconds
#
# Revision: 1
# Processed by: cddbd v1.5.2PL0 Copyright (c) Steve Scherf et al.
# Submitted via: audiograbber 1.83.01
#
DISCID=af0a710c
DTITLE=Washboard Chaz Blues Trio - On The Street
DYEAR=2010
DGENRE=Blues
TTITLE0=Doing Bad
TTITLE1=On The Street
TTITLE2=Louis Collins
TTITLE3=Pick Yourself Up
TTITLE4=I'll Fly Away
TTITLE5=Thank The Lord
TTITLE6=The Old Folks Started It
TTITLE7=Fire Once Again
TTITLE8=Farewell Blues
TTITLE9=Just Your Fool
TTITLE10=My Life Is Filled With You
TTITLE11=What's The Matter With The Mill
EXTD=
EXTT0=
EXTT1=
EXTT2=
EXTT3=
EXTT4=
EXTT5=
EXTT6=
EXTT7=
EXTT8=
EXTT9=
EXTT10=
EXTT11=
PLAYORDER=
